HIERARCHY
ROOT joint_Root
{
	OFFSET 0.0 0.0 0.0
	CHANNELS 6 Xposition Yposition Zposition Zrotation Xrotation Yrotation 
	JOINT Hips
	{
		OFFSET 4.5925 91.4895 -427.239
		CHANNELS 6 Xposition Yposition Zposition Zrotation Xrotation Yrotation 
		JOINT Spine
		{
			OFFSET 15.7357 0.0 0.0
			CHANNELS 6 Xposition Yposition Zposition Zrotation Xrotation Yrotation 
			JOINT Chest
			{
				OFFSET 8.98455 -0.406207 0.0
				CHANNELS 6 Xposition Yposition Zposition Zrotation Xrotation Yrotation 
				JOINT Neck
				{
					OFFSET 16.3773 0.0 0.0
					CHANNELS 6 Xposition Yposition Zposition Zrotation Xrotation Yrotation 
					JOINT Head
					{
						OFFSET 6.45672 0.0 0.0
						CHANNELS 6 Xposition Yposition Zposition Zrotation Xrotation Yrotation 
						End Site
						{
							OFFSET 0.0 0.0 0.0
						}
					}
				}
				JOINT Shoulder_L
				{
					OFFSET 12.9942 -0.242716 4.98039
					CHANNELS 6 Xposition Yposition Zposition Zrotation Xrotation Yrotation 
					JOINT UpperArm_L
					{
						OFFSET 5.34809 0.0 0.0
						CHANNELS 6 Xposition Yposition Zposition Zrotation Xrotation Yrotation 
						JOINT LowerArm_L
						{
							OFFSET 24.3286 1.87007e-05 0.0
							CHANNELS 6 Xposition Yposition Zposition Zrotation Xrotation Yrotation 
							JOINT Hand_L
							{
								OFFSET 22.2916 0.0 0.0
								CHANNELS 6 Xposition Yposition Zposition Zrotation Xrotation Yrotation 
								End Site
								{
									OFFSET 0.0 0.0 0.0
								}
							}
						}
					}
				}
				JOINT Shoulder_R
				{
					OFFSET 12.9945 -0.242716 -4.98039
					CHANNELS 6 Xposition Yposition Zposition Zrotation Xrotation Yrotation 
					JOINT UpperArm_R
					{
						OFFSET -5.34813 0.0 0.0
						CHANNELS 6 Xposition Yposition Zposition Zrotation Xrotation Yrotation 
						JOINT LowerArm_R
						{
							OFFSET -24.3289 0.000322201 0.0
							CHANNELS 6 Xposition Yposition Zposition Zrotation Xrotation Yrotation 
							JOINT Hand_R
							{
								OFFSET -22.2915 -0.000108084 0.0
								CHANNELS 6 Xposition Yposition Zposition Zrotation Xrotation Yrotation 
								End Site
								{
									OFFSET 0.0 0.0 0.0
								}
							}
						}
					}
				}
			}
		}
		JOINT UpperLeg_L
		{
			OFFSET -2.19248 -6.46944 0.0
			CHANNELS 6 Xposition Yposition Zposition Zrotation Xrotation Yrotation 
			JOINT LowerLeg_L
			{
				OFFSET 39.0811 0.0 -1.23785e-05
				CHANNELS 6 Xposition Yposition Zposition Zrotation Xrotation Yrotation 
				JOINT Foot_L
				{
					OFFSET 40.9854 0.0 -1.26872e-05
					CHANNELS 6 Xposition Yposition Zposition Zrotation Xrotation Yrotation 
					JOINT Toes_L
					{
						OFFSET 11.7543 0.0 0.0
						CHANNELS 6 Xposition Yposition Zposition Zrotation Xrotation Yrotation 
						End Site
						{
							OFFSET 0.0 0.0 0.0
						}
					}
				}
			}
		}
		JOINT UpperLeg_R
		{
			OFFSET -2.19251 6.46944 0.0
			CHANNELS 6 Xposition Yposition Zposition Zrotation Xrotation Yrotation 
			JOINT LowerLeg_R
			{
				OFFSET -39.0811 -0.00228153 -0.0401928
				CHANNELS 6 Xposition Yposition Zposition Zrotation Xrotation Yrotation 
				JOINT Foot_R
				{
					OFFSET -40.9854 0.0 0.0
					CHANNELS 6 Xposition Yposition Zposition Zrotation Xrotation Yrotation 
					JOINT Toes_R
					{
						OFFSET -11.7543 0.0 0.0
						CHANNELS 6 Xposition Yposition Zposition Zrotation Xrotation Yrotation 
						End Site
						{
							OFFSET 0.0 0.0 0.0
						}
					}
				}
			}
		}
	}
}
MOTION
Frames:	9
Frame Time:	0.0333333
0.000000 0.000000 0.000000 0.000000 0.000000 -0.000000 -0.141282 82.254300 1.541090 88.335400 -11.561500 15.453400 15.735700 0.000005 -0.000001 75.012800 79.623800 -73.618100 8.984550 -0.406207 -0.000000 12.384500 -5.261380 3.361660 16.377300 -0.000001 -0.000001 -0.707474 4.656480 1.646320 6.456720 -0.000001 -0.000000 -6.686070 13.312400 -3.336480 12.994200 -0.242716 4.980390 -91.096400 3.634220 -73.199000 5.348090 -0.000007 -0.000001 -66.149300 29.822200 -7.326330 24.328600 0.000019 0.000005 7.304060 11.187100 -33.450500 22.291600 -0.000001 0.000005 13.054900 5.255310 1.292010 12.994500 -0.242716 -4.980390 86.603900 13.294100 -75.529400 -5.348130 -0.000001 -0.000004 -57.461800 10.678300 -6.791870 -24.328900 0.000322 -0.000009 -1.869380 -6.331050 -16.472600 -22.291500 -0.000108 -0.000004 7.472530 5.219000 2.242340 -2.192480 -6.469440 -0.000000 -170.640000 -15.586900 -6.505960 39.081100 -0.000007 -0.000012 -0.484149 0.266077 61.208900 40.985400 -0.000006 -0.000013 -0.324736 2.415830 -87.905300 11.754300 -0.000000 0.000003 -0.000228 -0.002064 -16.655100 -2.192510 6.469440 -0.000001 177.532000 5.461710 170.802000 -39.081100 -0.002282 -0.040193 0.043576 -0.021853 61.581300 -40.985400 0.000008 0.000006 7.355200 6.585380 -86.550300 -11.754300 -0.000006 -0.000006 -0.437335 -0.539089 -17.455700
0.000000 0.000000 0.000000 0.000000 0.000000 -0.000000 -0.923561 83.599600 1.810800 87.531500 -7.682530 14.673400 15.735700 0.000005 -0.000001 75.289100 80.582100 -74.451000 8.984550 -0.406207 -0.000000 10.514000 -4.730360 2.111470 16.377300 -0.000001 -0.000001 0.161477 3.086440 1.814510 6.456720 -0.000001 -0.000000 -5.747180 10.418000 -2.436260 12.994200 -0.242716 4.980390 -91.269400 4.122790 -72.869700 5.348090 -0.000007 -0.000001 -65.813400 29.643700 -8.444690 24.328600 0.000019 0.000005 6.698040 11.083400 -31.420700 22.291600 -0.000001 0.000005 12.194800 5.240960 1.670700 12.994500 -0.242716 -4.980390 86.867200 12.193700 -75.472400 -5.348130 -0.000001 -0.000004 -55.690500 6.452520 -7.855670 -24.328900 0.000322 -0.000009 -0.614227 -3.190660 -10.881700 -22.291500 -0.000108 -0.000004 2.692400 5.210450 2.454730 -2.192480 -6.469440 -0.000000 -170.069000 -13.093400 -6.055090 39.081100 -0.000007 -0.000012 -0.434832 0.275653 57.629100 40.985400 -0.000006 -0.000013 -0.132937 4.054600 -85.816000 11.754300 -0.000000 0.000003 -0.000213 -0.001952 -16.651100 -2.192510 6.469440 -0.000001 178.120000 8.928680 173.028000 -39.081100 -0.002282 -0.040193 0.055984 -0.033896 57.285200 -40.985400 0.000008 0.000006 7.452800 5.987060 -84.928800 -11.754300 -0.000006 -0.000006 -0.397644 -0.492004 -17.561300
0.000000 0.000000 0.000000 0.000000 0.000000 -0.000000 -1.543680 85.628200 1.988220 87.185700 -3.753100 13.017400 15.735700 0.000005 -0.000001 75.086200 81.955000 -75.121800 8.984550 -0.406207 -0.000000 7.795780 -4.124030 0.209983 16.377300 -0.000001 -0.000001 2.061250 1.306770 2.264050 6.456720 -0.000001 -0.000000 -4.797220 7.156050 -0.674482 12.994200 -0.242716 4.980390 -91.300700 4.102010 -72.389800 5.348090 -0.000007 -0.000001 -66.279300 28.928800 -8.812230 24.328600 0.000019 0.000005 6.492660 11.885000 -28.924900 22.291600 -0.000001 0.000005 10.956700 5.244680 1.572760 12.994500 -0.242716 -4.980390 87.313100 10.171300 -75.117400 -5.348130 -0.000001 -0.000004 -51.637500 0.495645 -11.155400 -24.328900 0.000322 -0.000009 -0.418220 -3.142670 -7.566600 -22.291500 -0.000108 -0.000004 1.437160 5.209710 2.474560 -2.192480 -6.469440 -0.000000 -170.166000 -11.144700 -5.556990 39.081100 -0.000007 -0.000012 -0.360591 0.286055 51.576000 40.985400 -0.000006 -0.000013 0.099273 5.886340 -82.350600 11.754300 -0.000000 0.000003 -0.000173 -0.001635 -16.639500 -2.192510 6.469440 -0.000001 178.428000 12.283800 175.087000 -39.081100 -0.002282 -0.040193 0.057521 -0.044323 50.764300 -40.985400 0.000008 0.000006 7.241380 5.729010 -81.771800 -11.754300 -0.000006 -0.000006 -0.380526 -0.473404 -17.851200
0.000000 0.000000 0.000000 0.000000 0.000000 -0.000000 -1.903260 87.670900 2.105170 87.115700 -0.220007 10.763300 15.735700 0.000005 -0.000001 73.883200 83.567000 -74.884200 8.984550 -0.406207 -0.000000 4.571220 -3.537320 -1.858900 16.377300 -0.000001 -0.000001 5.081690 -0.247774 2.692070 6.456720 -0.000001 -0.000000 -3.638330 4.037900 0.964578 12.994200 -0.242716 4.980390 -91.171800 3.543470 -71.688300 5.348090 -0.000007 -0.000001 -67.074400 28.022300 -8.379920 24.328600 0.000019 0.000005 6.039050 12.235800 -26.527100 22.291600 -0.000001 0.000005 9.925900 5.232840 1.882010 12.994500 -0.242716 -4.980390 87.825400 8.018940 -74.772900 -5.348130 -0.000001 -0.000004 -45.448400 -9.364950 -16.787500 -24.328900 0.000322 -0.000009 -0.480565 -4.876980 -5.622990 -22.291500 -0.000108 -0.000004 3.597530 5.206360 2.560050 -2.192480 -6.469440 -0.000000 -170.606000 -10.052100 -5.212200 39.081100 -0.000007 -0.000012 -0.266264 0.269407 44.664400 40.985400 -0.000006 -0.000013 0.308047 7.756820 -78.456100 11.754300 -0.000000 0.000003 -0.000101 -0.001039 -16.617400 -2.192510 6.469440 -0.000001 178.490000 15.722100 176.694000 -39.081100 -0.002282 -0.040193 0.048191 -0.047272 43.540500 -40.985400 0.000008 0.000006 6.945060 6.288870 -78.049900 -11.754300 -0.000006 -0.000006 -0.321438 -0.407582 -18.280700
0.000000 0.000000 0.000000 0.000000 0.000000 -0.000000 -1.990780 89.173200 2.159620 87.194100 2.474730 9.196290 15.735700 0.000005 -0.000001 72.995700 84.780100 -74.744100 8.984550 -0.406207 -0.000000 2.177430 -2.965650 -3.437510 16.377300 -0.000001 -0.000001 8.000860 -1.269370 2.491910 6.456720 -0.000001 -0.000000 -2.326950 1.745790 1.611350 12.994200 -0.242716 4.980390 -91.044100 3.032740 -70.992300 5.348090 -0.000007 -0.000001 -67.591100 26.554200 -7.615310 24.328600 0.000019 0.000005 5.541830 12.224800 -24.617800 22.291600 -0.000001 0.000005 9.097590 5.225840 2.062820 12.994500 -0.242716 -4.980390 88.530100 5.546470 -75.132700 -5.348130 -0.000001 -0.000004 -38.562000 -21.475900 -24.337600 -24.328900 0.000322 -0.000009 -0.977854 -9.252380 -6.052100 -22.291500 -0.000108 -0.000004 7.152290 5.237250 1.771230 -2.192480 -6.469440 -0.000000 -171.011000 -9.712540 -4.458630 39.081100 -0.000007 -0.000012 -0.203699 0.253259 38.810600 40.985400 -0.000006 -0.000013 0.537183 9.534730 -75.225200 11.754300 -0.000000 0.000003 -0.000059 -0.000652 -16.602800 -2.192510 6.469440 -0.000001 178.072000 19.139700 178.507000 -39.081100 -0.002282 -0.040193 0.034635 -0.041084 37.346200 -40.985400 0.000008 0.000006 6.756350 7.761820 -75.092300 -11.754300 -0.000006 -0.000006 -0.156564 -0.221603 -18.546900
0.000000 0.000000 0.000000 0.000000 0.000000 -0.000000 -1.928030 89.992400 2.146400 87.540200 4.016520 8.541460 15.735700 0.000005 -0.000001 75.300900 85.476600 -77.504900 8.984550 -0.406207 -0.000000 0.947932 -2.163610 -4.386850 16.377300 -0.000001 -0.000001 9.810110 -1.655980 1.782250 6.456720 -0.000001 -0.000000 -1.187050 0.703125 0.929698 12.994200 -0.242716 4.980390 -91.145900 3.194440 -70.254100 5.348090 -0.000007 -0.000001 -67.123100 24.772200 -7.092400 24.328600 0.000019 0.000005 5.193790 12.338800 -23.043200 22.291600 -0.000001 0.000005 8.971460 5.218250 2.257360 12.994500 -0.242716 -4.980390 89.557400 1.847660 -76.530300 -5.348130 -0.000001 -0.000004 -34.870100 -36.389600 -32.697400 -24.328900 0.000322 -0.000009 -3.489740 -16.094300 -12.395700 -22.291500 -0.000108 -0.000004 9.761840 5.359590 -1.663680 -2.192480 -6.469440 -0.000000 -171.357000 -10.438400 -3.538540 39.081100 -0.000007 -0.000012 -0.170950 0.243194 35.105100 40.985400 -0.000006 -0.000013 0.902162 11.368300 -73.210300 11.754300 -0.000000 0.000003 -0.000047 -0.000533 -16.598300 -2.192510 6.469440 -0.000001 177.295000 21.385000 -179.727000 -39.081100 -0.002282 -0.040193 0.022481 -0.029366 33.158000 -40.985400 0.000008 0.000006 6.586780 9.034810 -73.775800 -11.754300 -0.000006 -0.000006 -0.003603 -0.047245 -18.494700
0.000000 0.000000 0.000000 0.000000 0.000000 -0.000000 -1.898760 90.382200 2.033890 88.022500 5.112730 8.335250 15.735700 0.000005 -0.000001 81.511800 85.618100 -84.130800 8.984550 -0.406207 -0.000000 0.881523 -1.135890 -5.225090 16.377300 -0.000001 -0.000001 10.249300 -2.045190 1.467730 6.456720 -0.000001 -0.000000 -0.773875 0.338492 -0.615803 12.994200 -0.242716 4.980390 -91.432000 3.946940 -70.040100 5.348090 -0.000007 -0.000001 -64.837100 22.965100 -7.667010 24.328600 0.000019 0.000005 5.006220 12.702800 -21.720600 22.291600 -0.000001 0.000005 9.836500 5.207620 2.527110 12.994500 -0.242716 -4.980390 90.525100 -2.265630 -76.949200 -5.348130 -0.000001 -0.000004 -32.888000 -47.788200 -40.774100 -24.328900 0.000322 -0.000009 -9.131880 -17.566300 -28.041000 -22.291500 -0.000108 -0.000004 12.338600 5.512730 -7.027800 -2.192480 -6.469440 -0.000000 -171.725000 -11.275400 -2.959130 39.081100 -0.000007 -0.000012 -0.137483 0.210878 33.102900 40.985400 -0.000006 -0.000013 1.238760 12.999200 -72.034200 11.754300 -0.000000 0.000003 -0.000037 -0.000438 -16.594600 -2.192510 6.469440 -0.000001 176.537000 22.707400 -178.405000 -39.081100 -0.002282 -0.040193 0.017961 -0.024733 30.657100 -40.985400 0.000008 0.000006 6.779990 9.568590 -73.610500 -11.754300 -0.000006 -0.000006 -0.003714 -0.048436 -18.543200
0.000000 0.000000 0.000000 0.000000 0.000000 -0.000000 -2.055220 90.602300 1.875810 88.457900 6.818110 8.067590 15.735700 0.000005 -0.000001 86.018600 85.678000 -89.029300 8.984550 -0.406207 -0.000000 0.853362 -0.418526 -6.013600 16.377300 -0.000001 -0.000001 10.628300 -2.877150 2.390200 6.456720 -0.000001 -0.000000 -0.692777 -0.002880 -3.114320 12.994200 -0.242716 4.980390 -91.765000 4.799290 -69.781200 5.348090 -0.000007 -0.000001 -61.784600 21.698400 -8.864620 24.328600 0.000019 0.000005 5.180120 14.365500 -20.072800 22.291600 -0.000001 0.000005 11.346700 5.187380 3.032380 12.994500 -0.242716 -4.980390 91.514200 -5.599340 -74.845000 -5.348130 -0.000001 -0.000004 -21.821400 -51.501400 -43.463800 -24.328900 0.000322 -0.000009 -9.923520 -11.260000 -41.856600 -22.291500 -0.000108 -0.000004 21.366900 5.610410 -11.888000 -2.192480 -6.469440 -0.000000 -171.874000 -12.172900 -2.986020 39.081100 -0.000007 -0.000012 -0.114957 0.184749 31.891500 40.985400 -0.000006 -0.000013 1.685580 15.429900 -71.158100 11.754300 -0.000000 0.000003 -0.000033 -0.000393 -16.592900 -2.192510 6.469440 -0.000001 175.922000 24.531200 -177.598000 -39.081100 -0.002282 -0.040193 0.013696 -0.018699 29.062900 -40.985400 0.000008 0.000006 6.910580 9.845130 -73.637500 -11.754300 -0.000006 -0.000006 -0.003503 -0.046169 -18.450900
0.000000 0.000000 0.000000 0.000000 0.000000 -0.000000 -2.508750 90.758900 1.868420 88.866000 9.672700 7.507250 15.735700 0.000005 -0.000001 87.498600 85.847700 -91.081100 8.984550 -0.406207 -0.000000 0.536503 -0.136615 -7.159150 16.377300 -0.000001 -0.000001 11.574200 -4.426820 4.653420 6.456720 -0.000001 -0.000000 -0.472472 -0.943163 -4.295060 12.994200 -0.242716 4.980390 -91.618900 4.411740 -69.826100 5.348090 -0.000007 -0.000001 -60.913000 18.621200 -9.967120 24.328600 0.000019 0.000005 6.262280 18.994100 -18.632400 22.291600 -0.000001 0.000005 13.955300 5.122130 4.595890 12.994500 -0.242716 -4.980390 93.116000 -9.096740 -71.002900 -5.348130 -0.000001 -0.000004 -16.858700 -54.813700 -50.520200 -24.328900 0.000322 -0.000009 -7.934150 -9.272580 -40.849200 -22.291500 -0.000108 -0.000004 17.006200 5.609770 -11.915000 -2.192480 -6.469440 -0.000000 -171.957000 -12.402400 -3.551420 39.081100 -0.000007 -0.000012 -0.096567 0.161504 30.876600 40.985400 -0.000006 -0.000013 2.006380 18.361100 -70.342600 11.754300 -0.000000 0.000003 -0.000024 -0.000301 -16.589300 -2.192510 6.469440 -0.000001 175.553000 26.939000 -177.266000 -39.081100 -0.002282 -0.040193 -0.023566 0.050392 28.068900 -40.985400 0.000008 0.000006 6.432480 9.638680 -73.312100 -11.754300 -0.000006 -0.000006 -0.003312 -0.044086 -18.366100
